<svg width="149" height="56" viewBox="0 0 149 56" fill="none" xmlns="http://www.w3.org/2000/svg">
<rect x="0.5" width="148" height="56" rx="28" fill="#1C0BE0"/>
<path d="M33.62 34V22.48H42.612V34H41.188V23.832H35.044V34H33.62ZM48.5344 34.24C47.6757 34.24 46.9344 34.0453 46.3104 33.656C45.6917 33.2667 45.2144 32.728 44.8784 32.04C44.5424 31.352 44.3744 30.5627 44.3744 29.672C44.3744 28.7653 44.545 27.9707 44.8864 27.288C45.2277 26.6053 45.7104 26.0747 46.3344 25.696C46.9584 25.312 47.6917 25.12 48.5344 25.12C49.3984 25.12 50.1424 25.3147 50.7664 25.704C51.3904 26.088 51.8677 26.624 52.1984 27.312C52.5344 27.9947 52.7024 28.7813 52.7024 29.672C52.7024 30.5733 52.5344 31.368 52.1984 32.056C51.8624 32.7387 51.3824 33.2747 50.7584 33.664C50.1344 34.048 49.393 34.24 48.5344 34.24ZM48.5344 32.888C49.4304 32.888 50.097 32.5893 50.5344 31.992C50.9717 31.3947 51.1904 30.6213 51.1904 29.672C51.1904 28.696 50.969 27.92 50.5264 27.344C50.0837 26.7627 49.4197 26.472 48.5344 26.472C47.9317 26.472 47.4357 26.608 47.0464 26.88C46.657 27.152 46.3664 27.528 46.1744 28.008C45.9824 28.488 45.8864 29.0427 45.8864 29.672C45.8864 30.6427 46.1104 31.4213 46.5584 32.008C47.0064 32.5947 47.665 32.888 48.5344 32.888ZM57.3566 34.24C56.5033 34.24 55.7486 34.056 55.0926 33.688C54.4366 33.3147 53.9193 32.8027 53.5406 32.152L54.6766 31.416C54.9913 31.8907 55.3673 32.256 55.8046 32.512C56.242 32.7627 56.7406 32.888 57.3006 32.888C57.8873 32.888 58.354 32.7547 58.7006 32.488C59.0473 32.216 59.2206 31.8507 59.2206 31.392C59.2206 31.0507 59.1353 30.7893 58.9646 30.608C58.794 30.4267 58.5486 30.3013 58.2286 30.232C57.9086 30.1627 57.5273 30.128 57.0846 30.128H56.1886V28.952H57.0766C57.6366 28.952 58.0926 28.8613 58.4446 28.68C58.7966 28.4987 58.9726 28.1893 58.9726 27.752C58.9726 27.304 58.8073 26.9787 58.4766 26.776C58.1513 26.568 57.762 26.464 57.3086 26.464C56.8286 26.464 56.37 26.5653 55.9326 26.768C55.4953 26.9653 55.1193 27.216 54.8046 27.52L53.9406 26.552C54.3886 26.0933 54.9033 25.7413 55.4846 25.496C56.0713 25.2453 56.7086 25.12 57.3966 25.12C57.9513 25.12 58.458 25.2187 58.9166 25.416C59.3806 25.608 59.7486 25.8933 60.0206 26.272C60.298 26.6453 60.4366 27.1013 60.4366 27.64C60.4366 28.0987 60.33 28.5067 60.1166 28.864C59.9033 29.2213 59.5886 29.5333 59.1726 29.8L59.1166 29.296C59.4686 29.3813 59.7593 29.5387 59.9886 29.768C60.2233 29.992 60.3966 30.2587 60.5086 30.568C60.6206 30.8773 60.6766 31.2 60.6766 31.536C60.6766 32.1013 60.5273 32.5867 60.2286 32.992C59.9353 33.392 59.538 33.7013 59.0366 33.92C58.5353 34.1333 57.9753 34.24 57.3566 34.24ZM62.4245 34V25.36H66.1045C66.3232 25.36 66.5578 25.3733 66.8085 25.4C67.0645 25.4213 67.2965 25.4613 67.5045 25.52C67.9685 25.6427 68.3498 25.896 68.6485 26.28C68.9525 26.6587 69.1045 27.1387 69.1045 27.72C69.1045 28.0453 69.0538 28.328 68.9525 28.568C68.8565 28.808 68.7178 29.016 68.5365 29.192C68.4565 29.272 68.3685 29.344 68.2725 29.408C68.1765 29.472 68.0805 29.5227 67.9845 29.56C68.1712 29.592 68.3605 29.664 68.5525 29.776C68.8565 29.9413 69.0938 30.1733 69.2645 30.472C69.4405 30.7707 69.5285 31.152 69.5285 31.616C69.5285 32.2027 69.3872 32.688 69.1045 33.072C68.8218 33.4507 68.4325 33.712 67.9365 33.856C67.7285 33.9147 67.4992 33.9547 67.2485 33.976C66.9978 33.992 66.7552 34 66.5205 34H62.4245ZM63.8645 32.84H66.4405C66.5525 32.84 66.6858 32.8293 66.8405 32.808C67.0005 32.7867 67.1418 32.76 67.2645 32.728C67.5418 32.648 67.7418 32.4987 67.8645 32.28C67.9925 32.0613 68.0565 31.824 68.0565 31.568C68.0565 31.2267 67.9605 30.9493 67.7685 30.736C67.5818 30.5227 67.3338 30.3893 67.0245 30.336C66.9125 30.304 66.7898 30.2853 66.6565 30.28C66.5285 30.2747 66.4138 30.272 66.3125 30.272H63.8645V32.84ZM63.8645 29.096H66.0085C66.1578 29.096 66.3152 29.088 66.4805 29.072C66.6458 29.0507 66.7898 29.016 66.9125 28.968C67.1578 28.8773 67.3365 28.728 67.4485 28.52C67.5658 28.3067 67.6245 28.0747 67.6245 27.824C67.6245 27.5467 67.5605 27.304 67.4325 27.096C67.3098 26.8827 67.1205 26.736 66.8645 26.656C66.6938 26.592 66.5018 26.5573 66.2885 26.552C66.0805 26.5413 65.9472 26.536 65.8885 26.536H63.8645V29.096ZM74.8156 34.24C73.957 34.24 73.2156 34.0453 72.5916 33.656C71.973 33.2667 71.4956 32.728 71.1596 32.04C70.8236 31.352 70.6556 30.5627 70.6556 29.672C70.6556 28.7653 70.8263 27.9707 71.1676 27.288C71.509 26.6053 71.9916 26.0747 72.6156 25.696C73.2396 25.312 73.973 25.12 74.8156 25.12C75.6796 25.12 76.4236 25.3147 77.0476 25.704C77.6716 26.088 78.149 26.624 78.4796 27.312C78.8156 27.9947 78.9836 28.7813 78.9836 29.672C78.9836 30.5733 78.8156 31.368 78.4796 32.056C78.1436 32.7387 77.6636 33.2747 77.0396 33.664C76.4156 34.048 75.6743 34.24 74.8156 34.24ZM74.8156 32.888C75.7116 32.888 76.3783 32.5893 76.8156 31.992C77.253 31.3947 77.4716 30.6213 77.4716 29.672C77.4716 28.696 77.2503 27.92 76.8076 27.344C76.365 26.7627 75.701 26.472 74.8156 26.472C74.213 26.472 73.717 26.608 73.3276 26.88C72.9383 27.152 72.6476 27.528 72.4556 28.008C72.2636 28.488 72.1676 29.0427 72.1676 29.672C72.1676 30.6427 72.3916 31.4213 72.8396 32.008C73.2876 32.5947 73.9463 32.888 74.8156 32.888ZM80.737 34V25.36H82.161V29H86.705V25.36H88.129V34H86.705V30.352H82.161V34H80.737ZM97.442 25.36V34H96.066V27.632L91.538 34H90.362V25.36H91.738V31.64L96.274 25.36H97.442ZM101.971 34V26.656H98.9625V25.36H106.403V26.656H103.395V34H101.971ZM107.917 34L107.909 25.36H109.341V28.488H111.205C111.456 28.488 111.712 28.4933 111.973 28.504C112.234 28.5147 112.461 28.5387 112.653 28.576C113.101 28.6613 113.493 28.8107 113.829 29.024C114.165 29.2373 114.426 29.528 114.613 29.896C114.8 30.2587 114.893 30.7093 114.893 31.248C114.893 31.9947 114.698 32.5867 114.309 33.024C113.925 33.456 113.421 33.744 112.797 33.888C112.584 33.936 112.338 33.968 112.061 33.984C111.789 33.9947 111.53 34 111.285 34H107.917ZM109.341 32.824H111.309C111.469 32.824 111.648 32.8187 111.845 32.808C112.042 32.7973 112.218 32.7707 112.373 32.728C112.645 32.648 112.888 32.4907 113.101 32.256C113.32 32.0213 113.429 31.6853 113.429 31.248C113.429 30.8053 113.322 30.464 113.109 30.224C112.901 29.984 112.626 29.8267 112.285 29.752C112.13 29.7147 111.968 29.6907 111.797 29.68C111.626 29.6693 111.464 29.664 111.309 29.664H109.341V32.824Z" fill="white"/>
</svg>
