<svg width="49" height="48" viewBox="0 0 49 48" fill="none" xmlns="http://www.w3.org/2000/svg">
<path d="M22.4205 0.785365L17.6245 5.01685H24.5025V1.67813e-05C23.7602 -0.00241464 23.0172 0.259368 22.4205 0.785365Z" fill="#FDF0BC"/>
<path d="M26.5569 0.780486C25.9666 0.262593 25.2347 0.00243142 24.502 0V5.01683H31.38L26.5569 0.780486Z" fill="url(#paint0_linear_1_240)"/>
<path d="M7.77031 7.72292L6.78088 14.0884L12.0496 9.60889L8.86692 5.76562C8.29662 6.24705 7.89349 6.9319 7.77031 7.72292Z" fill="#FDF0BC"/>
<path d="M10.9365 5.02485C10.1559 5.01188 9.42961 5.28987 8.86731 5.76562L12.05 9.60889L17.3186 5.1294L10.9365 5.02485Z" fill="url(#paint1_linear_1_240)"/>
<path d="M0.951475 22.5794L4.2309 28.1004L5.42509 21.2373L0.549945 20.3652C0.417968 21.106 0.543546 21.893 0.951475 22.5794Z" fill="#FDF0BC"/>
<path d="M1.66438 18.4497C1.05889 18.949 0.678955 19.6346 0.549377 20.3649L5.42532 21.2361L6.61951 14.373L1.66438 18.4497Z" fill="url(#paint2_linear_1_240)"/>
<path d="M5.14957 38.401L11.1645 40.4936L7.72591 34.458L3.43787 36.9664C3.8066 37.6197 4.4017 38.1408 5.14957 38.401Z" fill="url(#paint3_linear_1_240)"/>
<path d="M3.07805 34.7729C2.93008 35.5493 3.07405 36.3225 3.43799 36.9669L7.72603 34.4584L4.28744 28.4229L3.07805 34.7729Z" fill="url(#paint4_linear_1_240)"/>
<path d="M18.4044 47.7864L24.3393 45.4725L17.8765 43.0889L16.1832 47.8034C16.8798 48.0627 17.6669 48.0741 18.4044 47.7864Z" fill="url(#paint5_linear_1_240)"/>
<path d="M14.5159 46.3573C14.8951 47.0486 15.4957 47.5471 16.1836 47.8032L17.8769 43.0887L11.4141 40.7051L14.5159 46.3573Z" fill="url(#paint6_linear_1_240)"/>
<path d="M34.5111 46.3435L37.5898 40.7051L31.1269 43.0887L32.8202 47.8032C33.5177 47.5479 34.128 47.0446 34.5111 46.3435Z" fill="url(#paint7_linear_1_240)"/>
<path d="M30.6251 47.7813C31.3546 48.0642 32.1304 48.0545 32.8199 47.8024L31.1266 43.0879L24.6638 45.4715L30.6251 47.7813Z" fill="url(#paint8_linear_1_240)"/>
<path d="M45.9353 34.747L44.7171 28.4229L41.2785 34.4584L45.5666 36.9669C45.9393 36.3161 46.0873 35.5331 45.9353 34.747Z" fill="url(#paint9_linear_1_240)"/>
<path d="M43.8696 38.3799C44.6071 38.1213 45.1958 37.6083 45.5645 36.9664L41.2765 34.458L37.8379 40.4936L43.8696 38.3799Z" fill="url(#paint10_linear_1_240)"/>
<path d="M47.3304 18.4238L42.3849 14.373L43.5791 21.2361L48.455 20.3649C48.3294 19.6241 47.9455 18.9279 47.3304 18.4238Z" fill="url(#paint11_linear_1_240)"/>
<path d="M48.0518 22.5519C48.4533 21.8735 48.5789 21.0971 48.4533 20.3652L43.5774 21.2365L44.7716 28.0996L48.0518 22.5519Z" fill="url(#paint12_linear_1_240)"/>
<path d="M38.043 5.0103L31.6849 5.12782L36.9536 9.60731L40.1362 5.76404C39.5691 5.27938 38.834 4.99571 38.043 5.0103Z" fill="url(#paint13_linear_1_240)"/>
<path d="M41.2142 7.70282C41.0911 6.92153 40.6951 6.24559 40.1352 5.7666L36.9526 9.60987L42.2213 14.0894L41.2142 7.70282Z" fill="url(#paint14_linear_1_240)"/>
<path d="M24.5003 41.6639C33.7771 41.6639 41.2974 34.0438 41.2974 24.644C41.2974 15.2441 33.7771 7.62402 24.5003 7.62402C15.2235 7.62402 7.70325 15.2441 7.70325 24.644C7.70325 34.0438 15.2235 41.6639 24.5003 41.6639Z" fill="url(#paint15_radial_1_240)"/>
<path d="M24.5001 6.10352C14.3947 6.10352 6.20251 14.4036 6.20251 24.6431C6.20251 34.8826 14.3947 43.1835 24.5001 43.1835C34.6055 43.1835 42.7977 34.8826 42.7977 24.6431C42.7977 14.4036 34.6055 6.10352 24.5001 6.10352ZM24.5001 41.6614C15.2241 41.6614 7.70465 34.0422 7.70465 24.6431C7.70465 15.244 15.2241 7.62477 24.5001 7.62477C33.7761 7.62477 41.2956 15.244 41.2956 24.6431C41.2956 34.0422 33.7761 41.6614 24.5001 41.6614Z" fill="url(#paint16_linear_1_240)"/>
<path d="M24.5008 3.73828C13.106 3.73828 3.8692 13.0976 3.8692 24.6436C3.8692 36.1896 13.106 45.549 24.5008 45.549C35.8956 45.549 45.1324 36.1896 45.1324 24.6436C45.1324 13.0976 35.8956 3.73828 24.5008 3.73828ZM24.5008 43.1751C14.4002 43.1751 6.21199 34.8783 6.21199 24.6436C6.21199 14.409 14.4002 6.11297 24.5008 6.11297C34.6014 6.11297 42.7896 14.4098 42.7896 24.6444C42.7896 34.8791 34.6014 43.1751 24.5008 43.1751Z" fill="url(#paint17_linear_1_240)"/>
<path d="M19.8711 33.1742C19.5912 33.1742 19.3312 33.0835 19.1017 32.9214C19.0721 32.9011 19.0521 32.8809 19.0321 32.8606C19.0121 32.8509 19.0017 32.8306 18.9921 32.8201C18.9521 32.7893 18.9321 32.7593 18.9025 32.7293C18.8825 32.709 18.8721 32.6888 18.8529 32.6685L18.8433 32.6588C18.8233 32.6385 18.8129 32.6183 18.8033 32.598L18.7833 32.5672C18.7433 32.5064 18.7137 32.4456 18.6833 32.3848C18.6737 32.3549 18.6633 32.3241 18.6529 32.2941C18.6433 32.2633 18.6329 32.2236 18.6233 32.1928C18.6129 32.1522 18.6033 32.102 18.5929 32.0509C18.5929 32.0307 18.5834 32.0007 18.5834 31.9804C18.5834 31.9399 18.5738 31.8994 18.5738 31.8588C18.5738 31.7883 18.5834 31.717 18.5937 31.636L19.3632 27.1006L16.1158 23.8911C16.0558 23.8303 15.9958 23.7598 15.9462 23.6885C15.8862 23.5977 15.8462 23.5264 15.8166 23.4453C15.807 23.4153 15.787 23.3748 15.7766 23.3237C15.7462 23.2022 15.7271 23.0806 15.7271 22.9493C15.7271 22.9088 15.7271 22.8788 15.7271 22.8383C15.7271 22.7775 15.7366 22.7167 15.7566 22.6559C15.7566 22.6462 15.7662 22.6259 15.7662 22.6154C15.7766 22.5846 15.7766 22.5546 15.7862 22.5246C15.7862 22.5149 15.7958 22.4938 15.8062 22.4638C15.8158 22.433 15.8262 22.4031 15.8462 22.3731C15.8758 22.3123 15.9062 22.2515 15.9558 22.181C15.9758 22.1405 16.0054 22.1105 16.0358 22.0797C16.0358 22.0797 16.0358 22.0699 16.0454 22.0699L16.2054 21.8065H16.3453C16.3653 21.796 16.3749 21.7863 16.3949 21.7757C16.4149 21.766 16.4549 21.7458 16.4845 21.7255C16.5245 21.7052 16.5741 21.685 16.6341 21.6647C16.6541 21.655 16.6837 21.6444 16.7141 21.6444C16.7541 21.6347 16.7941 21.6242 16.8437 21.6137L21.3397 20.9555L23.3177 16.8554C23.5377 16.3999 23.9872 16.1162 24.4863 16.1162C24.8463 16.1162 25.1958 16.2678 25.4453 16.5312C25.4853 16.5814 25.5253 16.6219 25.5549 16.673C25.5949 16.7338 25.6349 16.7946 25.6645 16.8554L27.673 20.9653L32.1586 21.6234C32.6585 21.6939 33.068 22.0489 33.2176 22.5343C33.228 22.5651 33.2376 22.5846 33.2376 22.6154C33.2376 22.6251 33.2376 22.6251 33.2472 22.6357C33.2568 22.6665 33.2672 22.6964 33.2672 22.737C33.2672 22.7467 33.2672 22.7467 33.2672 22.7572C33.2768 22.7978 33.2768 22.8277 33.2768 22.8683C33.2872 23.0603 33.2568 23.263 33.1768 23.4453C33.1464 23.5264 33.1072 23.5969 33.0568 23.6682L33.0464 23.6779C32.9968 23.7484 32.9368 23.8198 32.8768 23.8805L29.6294 27.09L30.3989 31.6149C30.4789 32.1109 30.2893 32.6069 29.879 32.9108C29.779 32.9813 29.659 33.0527 29.539 33.0932C29.5286 33.0932 29.519 33.1037 29.499 33.1037C29.3695 33.1443 29.2391 33.1645 29.1095 33.1645C28.8999 33.1645 28.6896 33.1143 28.5 33.013L24.4839 30.8766L20.4678 33.013C20.2903 33.124 20.0807 33.1742 19.8711 33.1742Z" fill="#DF771E"/>
<path d="M24.4858 16.7637V25.1359L21.7279 21.5625L23.8859 17.1389C24.0163 16.8958 24.2563 16.7637 24.4858 16.7637Z" fill="#FFFAF6"/>
<path d="M32.6077 22.7476L24.4948 25.1369L27.2519 21.5635L32.0678 22.2718C32.3382 22.3221 32.5277 22.5142 32.6077 22.7476Z" fill="#FEE0AC"/>
<path d="M29.5013 32.3943L24.4861 25.1357L28.9422 26.8669L29.7612 31.7265C29.8204 32.0102 29.7004 32.2525 29.5013 32.3943Z" fill="#ECB76B"/>
<path d="M24.4861 25.1357V30.1469L20.1796 32.4446C19.9301 32.5759 19.6701 32.5354 19.4702 32.3943L24.4861 25.1357Z" fill="#F1A341"/>
<path d="M27.2431 21.5625L24.4852 25.1359V16.7637C24.6652 16.7637 24.8452 16.8342 24.9747 16.976C24.9947 16.9963 25.0147 17.0263 25.0347 17.0571C25.0547 17.0879 25.0747 17.1178 25.0843 17.1478L27.2431 21.5625Z" fill="#FFE9BA"/>
<path d="M32.5879 23.2026C32.5679 23.2431 32.5479 23.2836 32.5279 23.3242C32.4975 23.3647 32.4679 23.3947 32.4383 23.4352L28.9517 26.8773L24.4957 25.1461L32.6087 22.7568C32.6087 22.7666 32.6183 22.7771 32.6183 22.7876C32.6183 22.7982 32.6287 22.8079 32.6287 22.8282C32.6287 22.8387 32.6287 22.8387 32.6287 22.8387C32.6287 22.8484 32.6287 22.859 32.6287 22.8687C32.6287 22.8889 32.6287 22.8995 32.6287 22.9189C32.6383 23.0097 32.6279 23.111 32.5879 23.2026Z" fill="#E49632"/>
<path d="M29.5011 32.3943C29.4516 32.4349 29.3916 32.4649 29.3212 32.4851C29.3116 32.4851 29.3116 32.4851 29.3012 32.4948C29.1412 32.5451 28.9612 32.5354 28.7917 32.4446L24.4852 30.1469V25.1357L29.5011 32.3943Z" fill="#E29136"/>
<path d="M24.486 25.1357L19.4709 32.3943C19.4613 32.3838 19.4509 32.3741 19.4413 32.3635C19.4317 32.3538 19.4213 32.3433 19.4109 32.3327C19.4013 32.323 19.3909 32.3125 19.3709 32.2922C19.3605 32.2825 19.3509 32.272 19.3405 32.2614C19.3301 32.2509 19.3309 32.2517 19.3309 32.2412C19.3213 32.2314 19.3109 32.2209 19.3109 32.2104C19.2909 32.1804 19.2709 32.1496 19.2613 32.1196C19.2517 32.1099 19.2517 32.0888 19.2413 32.0693C19.2317 32.0491 19.2317 32.0385 19.2213 32.0191C19.2117 31.9988 19.2117 31.9688 19.2117 31.9486C19.2117 31.9389 19.2117 31.9178 19.2117 31.9081C19.2117 31.8878 19.2117 31.8675 19.2117 31.8473C19.2117 31.8067 19.2117 31.7662 19.2213 31.7257L20.0404 26.8661L24.486 25.1357Z" fill="#FED891"/>
<path d="M24.4851 25.1359L16.3721 22.7466C16.3721 22.7369 16.3817 22.7264 16.3817 22.7158C16.3913 22.6956 16.3913 22.6753 16.4017 22.6656C16.4217 22.6251 16.4417 22.5951 16.4617 22.5643C16.4713 22.544 16.4817 22.5335 16.5017 22.514C16.5121 22.5043 16.5217 22.4832 16.5417 22.4735C16.5513 22.4638 16.5721 22.4435 16.5817 22.433C16.5913 22.4225 16.6113 22.4127 16.6217 22.4022C16.6417 22.3925 16.6617 22.3714 16.6817 22.3617C16.6913 22.3519 16.7113 22.3414 16.7313 22.3414C16.7617 22.3317 16.7809 22.3211 16.8113 22.3106C16.8209 22.3106 16.8313 22.3009 16.8512 22.3009C16.8712 22.2912 16.9008 22.2912 16.9312 22.2806L21.7472 21.5723L24.4851 25.1359Z" fill="#FFF3D9"/>
<path d="M24.4861 25.1363L20.0405 26.8772L16.5539 23.4351C16.5139 23.4043 16.4939 23.3646 16.4643 23.3241C16.4443 23.2836 16.4147 23.243 16.4043 23.2025C16.3947 23.1823 16.3843 23.162 16.3843 23.1417C16.3643 23.0809 16.3539 23.0104 16.3539 22.9496C16.3539 22.9294 16.3539 22.9091 16.3539 22.8889C16.3539 22.8589 16.3539 22.8386 16.3643 22.8078C16.3643 22.7981 16.3739 22.7876 16.3739 22.7673C16.3739 22.7576 16.3835 22.747 16.3835 22.7373L24.4861 25.1363Z" fill="#ECB76B"/>
<defs>
<linearGradient id="paint0_linear_1_240" x1="24.8383" y1="2.50841" x2="31.1543" y2="2.50841" gradientUnits="userSpaceOnUse">
<stop stop-color="#FEE998"/>
<stop offset="1" stop-color="#FCC15B"/>
</linearGradient>
<linearGradient id="paint1_linear_1_240" x1="10.7904" y1="7.40339" x2="17.1624" y2="2.12631" gradientUnits="userSpaceOnUse">
<stop stop-color="#FEE998"/>
<stop offset="1" stop-color="#FCC15B"/>
</linearGradient>
<linearGradient id="paint2_linear_1_240" x1="6.73233" y1="14.3587" x2="3.10646" y2="20.2375" gradientUnits="userSpaceOnUse">
<stop stop-color="#FCC15B"/>
<stop offset="1" stop-color="#FEE998"/>
</linearGradient>
<linearGradient id="paint3_linear_1_240" x1="5.05957" y1="35.5718" x2="11.291" y2="39.6155" gradientUnits="userSpaceOnUse">
<stop stop-color="#FFC05F"/>
<stop offset="1" stop-color="#ED892B"/>
</linearGradient>
<linearGradient id="paint4_linear_1_240" x1="4.35795" y1="28.5542" x2="5.4876" y2="35.5864" gradientUnits="userSpaceOnUse">
<stop stop-color="#FCC15B"/>
<stop offset="1" stop-color="#FEE998"/>
</linearGradient>
<linearGradient id="paint5_linear_1_240" x1="17.3393" y1="45.5301" x2="23.4446" y2="46.8691" gradientUnits="userSpaceOnUse">
<stop stop-color="#FEAC3E"/>
<stop offset="1" stop-color="#F08223"/>
</linearGradient>
<linearGradient id="paint6_linear_1_240" x1="11.1091" y1="40.6513" x2="16.7576" y2="45.2123" gradientUnits="userSpaceOnUse">
<stop stop-color="#FFA135"/>
<stop offset="1" stop-color="#FEB431"/>
</linearGradient>
<linearGradient id="paint7_linear_1_240" x1="37.614" y1="40.6648" x2="31.9761" y2="45.4541" gradientUnits="userSpaceOnUse">
<stop stop-color="#FFAA3D"/>
<stop offset="1" stop-color="#ED8B1C"/>
</linearGradient>
<linearGradient id="paint8_linear_1_240" x1="24.6882" y1="45.9228" x2="31.8029" y2="45.5327" gradientUnits="userSpaceOnUse">
<stop stop-color="#FF962D"/>
<stop offset="1" stop-color="#E56005"/>
</linearGradient>
<linearGradient id="paint9_linear_1_240" x1="44.9785" y1="28.4482" x2="43.5116" y2="35.4965" gradientUnits="userSpaceOnUse">
<stop stop-color="#FDBD41"/>
<stop offset="1" stop-color="#FEB334"/>
</linearGradient>
<linearGradient id="paint10_linear_1_240" x1="46.8515" y1="29.6908" x2="39.8367" y2="41.6813" gradientUnits="userSpaceOnUse">
<stop stop-color="#F6942F"/>
<stop offset="1" stop-color="#EA6F11"/>
</linearGradient>
<linearGradient id="paint11_linear_1_240" x1="42.0396" y1="14.576" x2="46.2555" y2="20.7413" gradientUnits="userSpaceOnUse">
<stop stop-color="#FDBD41"/>
<stop offset="1" stop-color="#FEB334"/>
</linearGradient>
<linearGradient id="paint12_linear_1_240" x1="44.5138" y1="28.082" x2="46.1734" y2="20.8449" gradientUnits="userSpaceOnUse">
<stop stop-color="#FD9D24"/>
<stop offset="1" stop-color="#FF9515"/>
</linearGradient>
<linearGradient id="paint13_linear_1_240" x1="38.4651" y1="7.59119" x2="32.0346" y2="4.53006" gradientUnits="userSpaceOnUse">
<stop stop-color="#FCC15B"/>
<stop offset="1" stop-color="#FEE998"/>
</linearGradient>
<linearGradient id="paint14_linear_1_240" x1="38.4949" y1="7.195" x2="41.6112" y2="14.0294" gradientUnits="userSpaceOnUse">
<stop stop-color="#FF9515"/>
<stop offset="1" stop-color="#FFBE41"/>
</linearGradient>
<radialGradient id="paint15_radial_1_240" cx="0" cy="0" r="1" gradientUnits="userSpaceOnUse" gradientTransform="translate(24.5004 24.6436) scale(16.7971 17.0199)">
<stop offset="0.8428" stop-color="#FAAA31"/>
<stop offset="1" stop-color="#F57E16"/>
</radialGradient>
<linearGradient id="paint16_linear_1_240" x1="24.5002" y1="6.1032" x2="24.5002" y2="43.1839" gradientUnits="userSpaceOnUse">
<stop offset="0.0226" stop-color="#FD9A18"/>
<stop offset="0.3764" stop-color="#FEC752"/>
<stop offset="1" stop-color="#FFA422"/>
</linearGradient>
<linearGradient id="paint17_linear_1_240" x1="24.5009" y1="3.67701" x2="24.5009" y2="45.4879" gradientUnits="userSpaceOnUse">
<stop stop-color="#FFDB69"/>
<stop offset="0.1799" stop-color="#FEE7B0"/>
<stop offset="0.24" stop-color="#FEE9BA"/>
<stop offset="0.2592" stop-color="#FDECD0"/>
<stop offset="0.2953" stop-color="#FEDA92"/>
<stop offset="0.3254" stop-color="#FFCD64"/>
<stop offset="0.3405" stop-color="#FFC853"/>
<stop offset="0.7613" stop-color="#FF9114"/>
<stop offset="1" stop-color="#F57E16"/>
</linearGradient>
</defs>
</svg>
